<?xml version="1.0" standalone="no"?>
<!DOCTYPE svg PUBLIC "-//W3C//DTD SVG 20010904//EN"
 "http://www.w3.org/TR/2001/REC-SVG-20010904/DTD/svg10.dtd">
<svg version="1.0" xmlns="http://www.w3.org/2000/svg"
 width="1200.000000pt" height="1200.000000pt" viewBox="0 0 1200.000000 1200.000000"
 preserveAspectRatio="xMidYMid meet">

<g transform="translate(0.000000,1200.000000) scale(0.100000,-0.100000)"
fill="#000000" stroke="none">
<path d="M5710 10239 c-904 -59 -1745 -401 -2460 -1000 -706 -591 -1230 -1471
-1410 -2368 -166 -826 -95 -1668 206 -2429 320 -809 873 -1493 1599 -1979 443
-297 978 -521 1484 -623 826 -166 1668 -95 2429 206 809 320 1493 873 1979
1599 297 443 521 978 623 1484 166 826 95 1668 -206 2429 -217 548 -532 1028
-950 1446 -872 872 -2056 1316 -3294 1235z m-250 -2139 c0 -12 -47 -401 -105
-867 -58 -465 -105 -854 -105 -865 0 -19 6 -20 133 -16 120 3 137 5 188 31 31
15 78 50 105 80 27 28 280 374 561 767 281 393 531 735 555 759 56 56 136 96
234 116 67 13 151 15 532 13 l453 -3 -641 -835 c-354 -459 -671 -871 -706
-916 -67 -85 -195 -201 -270 -244 l-44 -26 53 -26 c81 -40 160 -110 208 -185
23 -37 250 -525 505 -1083 l462 -1015 -452 -3 c-282 -1 -477 1 -520 8 -84 13
-157 51 -198 102 -17 22 -182 383 -383 839 -226 513 -363 811 -380 829 -57 59
-112 73 -306 78 l-177 4 -6 -38 c-3 -22 -53 -424 -111 -894 -58 -470 -108
-872 -111 -892 l-6 -38 -479 0 -479 0 0 21 c0 18 153 1276 447 3682 l78 637
482 0 c480 0 483 0 483 -20z"/>
</g>
</svg>
